<?xml version="1.0" encoding="UTF-8" standalone="no"?>
<svg
   xmlns:dc="http://purl.org/dc/elements/1.1/"
   xmlns:cc="http://creativecommons.org/ns#"
   xmlns:rdf="http://www.w3.org/1999/02/22-rdf-syntax-ns#"
   xmlns:svg="http://www.w3.org/2000/svg"
   xmlns="http://www.w3.org/2000/svg"
   xmlns:sodipodi="http://sodipodi.sourceforge.net/DTD/sodipodi-0.dtd"
   xmlns:inkscape="http://www.inkscape.org/namespaces/inkscape"
   aria-hidden="true"
   focusable="false"
   data-prefix="fab"
   data-icon="github"
   class="svg-inline--fa fa-github fa-w-16 img-responsive img-fluid bg-primary"
   role="img"
   viewBox="0 0 496 496"
   version="1.1"
   id="svg4"
   sodipodi:docname="github.svg"
   width="496"
   height="496"
   style="color:#ff66ff"
   inkscape:version="0.92.4 5da689c313, 2019-01-14">
  <metadata
     id="metadata10">
    <rdf:RDF>
      <cc:Work
         rdf:about="">
        <dc:format>image/svg+xml</dc:format>
        <dc:type
           rdf:resource="http://purl.org/dc/dcmitype/StillImage" />
      </cc:Work>
    </rdf:RDF>
  </metadata>
  <defs
     id="defs8" />
  <sodipodi:namedview
     pagecolor="#ffffff"
     bordercolor="#666666"
     borderopacity="1"
     objecttolerance="10"
     gridtolerance="10"
     guidetolerance="10"
     inkscape:pageopacity="0"
     inkscape:pageshadow="2"
     inkscape:window-width="780"
     inkscape:window-height="480"
     id="namedview6"
     showgrid="false"
     inkscape:zoom="0.4609375"
     inkscape:cx="389.01695"
     inkscape:cy="255.13286"
     inkscape:window-x="413"
     inkscape:window-y="313"
     inkscape:window-maximized="0"
     inkscape:current-layer="svg4" />
  <path
     d="m 165.9,399.37847 c 0,2.05125 -2.3,3.69226 -5.2,3.69226 -3.3,0.30769 -5.6,-1.33332 -5.6,-3.69226 0,-2.05125 2.3,-3.69225 5.2,-3.69225 3,-0.30769 5.6,1.33332 5.6,3.69225 z m -31.1,-4.61531 c -0.7,2.05125 1.3,4.41019 4.3,5.02555 2.6,1.02564 5.6,0 6.2,-2.05124 0.6,-2.05125 -1.3,-4.41019 -4.3,-5.33325 -2.6,-0.71795 -5.5,0.30769 -6.2,2.35894 z M 179,393.0196 c -2.9,0.71794 -4.9,2.66662 -4.6,5.02556 0.3,2.05125 2.9,3.38456 5.9,2.66663 2.9,-0.71794 4.9,-2.66663 4.6,-4.71787 -0.3,-1.94869 -3,-3.28201 -5.9,-2.97432 z M 244.8,0 C 106.1,0 0,107.99834 0,250.25257 0,363.9944 69.8,461.32623 169.5,495.58212 c 12.8,2.35895 17.3,-5.7435 17.3,-12.41007 0,-6.35887 -0.3,-41.43526 -0.3,-62.97338 0,0 -70,15.38437 -84.7,-30.56364 0,0 -11.4,-29.84569 -27.8,-37.53788 0,0 -22.9,-16.10232 1.6,-15.79463 0,0 24.9,2.05126 38.6,26.46113 21.9,39.58914 58.6,28.20469 72.9,21.43558 2.3,-16.41001 8.8,-27.79446 16,-34.56357 -55.9,-6.35888 -112.3,-14.66645 -112.3,-113.3316 0,-28.2047 7.6,-42.35833 23.6,-60.40933 -2.6,-6.66656 -11.1,-34.15332 2.6,-69.63996 20.9,-6.666559 69,27.69188 69,27.69188 20,-5.74348 41.5,-8.7178 62.8,-8.7178 21.3,0 42.8,2.97432 62.8,8.7178 0,0 48.1,-34.460999 69,-27.69188 13.7,35.5892 5.2,62.9734 2.6,69.63996 16,18.15356 25.8,32.3072 25.8,60.40933 0,98.97283 -58.9,106.87015 -114.8,113.3316 9.2,8.10244 17,23.48681 17,47.58901 0,34.56357 -0.3,77.33214 -0.3,85.74226 0,6.66656 4.6,14.769 17.3,12.41008 C 428.2,461.32623 496,363.9944 496,250.25257 496,107.99834 383.5,0 244.8,0 Z M 97.2,353.73815 c -1.3,1.02563 -1,3.38455 0.7,5.33325 1.6,1.64101 3.9,2.35895 5.2,1.02562 1.3,-1.02562 1,-3.38456 -0.7,-5.33324 -1.6,-1.641 -3.9,-2.35894 -5.2,-1.02563 z m -10.8,-8.30757 c -0.7,1.33333 0.3,2.97432 2.3,3.99995 1.6,1.02561 3.6,0.71794 4.3,-0.71794 0.7,-1.33332 -0.3,-2.97432 -2.3,-3.99994 -2,-0.61538 -3.6,-0.30769 -4.3,0.71793 z m 32.4,36.51227 c -1.6,1.33331 -1,4.41019 1.3,6.35887 2.3,2.35895 5.2,2.66662 6.5,1.02563 1.3,-1.33332 0.7,-4.41019 -1.3,-6.35888 -2.2,-2.35895 -5.2,-2.66662 -6.5,-1.02562 z m -11.4,-15.07669 c -1.6,1.02561 -1.6,3.69224 0,6.05118 1.6,2.35894 4.3,3.38457 5.6,2.35894 1.6,-1.33331 1.6,-3.99994 0,-6.35888 -1.4,-2.35893 -4,-3.38456 -5.6,-2.05124 z"
     id="path2"
     inkscape:connector-curvature="0"
     style="fill:currentColor;stroke-width:1.01273167" />
</svg>
