<?xml version="1.0" encoding="UTF-8" standalone="no"?>
<!-- Created with Inkscape (http://www.inkscape.org/) -->

<svg
   xmlns:dc="http://purl.org/dc/elements/1.1/"
   xmlns:cc="http://creativecommons.org/ns#"
   xmlns:rdf="http://www.w3.org/1999/02/22-rdf-syntax-ns#"
   xmlns:svg="http://www.w3.org/2000/svg"
   xmlns="http://www.w3.org/2000/svg"
   xmlns:xlink="http://www.w3.org/1999/xlink"
   xmlns:sodipodi="http://sodipodi.sourceforge.net/DTD/sodipodi-0.dtd"
   xmlns:inkscape="http://www.inkscape.org/namespaces/inkscape"
   width="149.8542"
   height="83.240913"
   viewBox="0 0 39.648925 22.024157"
   version="1.1"
   id="svg8"
   inkscape:version="0.92.4 5da689c313, 2019-01-14"
   sodipodi:docname="logo_final.svg"
   inkscape:export-filename="/home/daniil/profile.png"
   inkscape:export-xdpi="327.39999"
   inkscape:export-ydpi="327.39999">
  <defs
     id="defs2">
    <linearGradient
       inkscape:collect="always"
       id="linearGradient879">
      <stop
         style="stop-color:#ff00ff;stop-opacity:1;"
         offset="0"
         id="stop875" />
      <stop
         style="stop-color:#ffffff;stop-opacity:1"
         offset="1"
         id="stop877" />
    </linearGradient>
    <inkscape:path-effect
       effect="bspline"
       id="path-effect874"
       is_visible="true"
       weight="33.333333"
       steps="2"
       helper_size="0"
       apply_no_weight="true"
       apply_with_weight="true"
       only_selected="false" />
    <inkscape:path-effect
       effect="spiro"
       id="path-effect870"
       is_visible="true" />
    <inkscape:path-effect
       effect="spiro"
       id="path-effect856"
       is_visible="true" />
    <inkscape:path-effect
       effect="spiro"
       id="path-effect852"
       is_visible="true" />
    <inkscape:path-effect
       effect="bspline"
       id="path-effect823"
       is_visible="true"
       weight="33.333333"
       steps="2"
       helper_size="0"
       apply_no_weight="true"
       apply_with_weight="true"
       only_selected="false" />
    <inkscape:path-effect
       effect="bspline"
       id="path-effect819"
       is_visible="true"
       weight="33.333333"
       steps="2"
       helper_size="0"
       apply_no_weight="true"
       apply_with_weight="true"
       only_selected="false" />
    <linearGradient
       inkscape:collect="always"
       xlink:href="#linearGradient879"
       id="linearGradient881"
       x1="37.041664"
       y1="110.46875"
       x2="46.963543"
       y2="109.14584"
       gradientUnits="userSpaceOnUse" />
  </defs>
  <sodipodi:namedview
     id="base"
     pagecolor="#ffffff"
     bordercolor="#666666"
     borderopacity="1.0"
     inkscape:pageopacity="0"
     inkscape:pageshadow="2"
     inkscape:zoom="5.64"
     inkscape:cx="71.254991"
     inkscape:cy="36.136543"
     inkscape:document-units="mm"
     inkscape:current-layer="layer1"
     showgrid="true"
     inkscape:window-width="1366"
     inkscape:window-height="713"
     inkscape:window-x="0"
     inkscape:window-y="30"
     inkscape:window-maximized="1"
     fit-margin-top="8"
     units="px"
     fit-margin-left="8"
     fit-margin-bottom="8"
     fit-margin-right="8">
    <inkscape:grid
       type="xygrid"
       id="grid815"
       spacingx="0.26458333"
       spacingy="0.26458333"
       originx="0"
       originy="0" />
  </sodipodi:namedview>
  <metadata
     id="metadata5">
    <rdf:RDF>
      <cc:Work
         rdf:about="">
        <dc:format>image/svg+xml</dc:format>
        <dc:type
           rdf:resource="http://purl.org/dc/dcmitype/StillImage" />
        <dc:title></dc:title>
      </cc:Work>
    </rdf:RDF>
  </metadata>
  <g
     inkscape:label="Livello 1"
     inkscape:groupmode="layer"
     id="layer1"
     transform="translate(-8.3343673,-82.094498)">
    <path
       style="fill:none;stroke:#ffffff;stroke-width:0.26458332px;stroke-linecap:butt;stroke-linejoin:miter;stroke-opacity:1"
       d="m 14.425295,97.024123 c 0,3.968477 0,7.194497 -0.261617,9.550377 -0.261617,2.35587 -0.620063,2.35587 -0.840681,0.37137 -0.220619,-1.98451 -0.220619,-5.66479 0.252538,-7.793268 0.473157,-2.128479 1.279172,-2.128479 2.396383,-2.128479 1.117212,0 2.422392,0 3.083718,1.984243 0.661326,1.984244 0.661326,5.952734 0.440957,7.937374 -0.220368,1.98463 -0.641907,1.98463 -0.872228,1.75431 -0.23032,-0.23032 -0.23032,-0.65217 -0.0098,-0.87238 0.220476,-0.22021 0.661523,-0.22021 0.992249,3.2e-4 0.330726,0.22053 0.551099,0.66127 0.882005,0.88182 0.330907,0.22055 0.771854,0.22055 1.433211,-1.98446 0.661357,-2.20501 1.543301,-6.61473 2.425194,-6.61468 0.881893,5e-5 1.760195,4.39156 2.424538,6.60563 0.664343,2.21407 1.103493,2.21407 1.764852,0.009 0.661359,-2.20502 1.543301,-6.61473 2.425194,-6.61468 0.881893,5e-5 1.763837,4.40977 2.425449,6.61474 0.661611,2.20496 1.159158,2.20496 1.543502,1.8204 0.384344,-0.38455 0.837573,-1.29101 1.080139,-3.23215 0.242566,-1.94113 0.242566,-4.32079 0.242566,-6.966619"
       id="path821"
       inkscape:connector-curvature="0"
       inkscape:path-effect="#path-effect823"
       inkscape:original-d="m 14.425295,97.024123 c 2.65e-4,3.968477 2.65e-4,7.194497 0,11.906247 -0.523234,-2.6e-4 -0.88168,-2.6e-4 -1.322917,0 2.65e-4,-3.96901 2.65e-4,-7.64929 0,-11.906247 0.946314,-2.65e-4 1.752329,-2.65e-4 2.645834,0 1.340918,-2.65e-4 2.646098,-2.65e-4 3.96875,0 2.64e-4,3.968487 2.64e-4,7.936977 0,11.906247 -0.440737,-2.6e-4 -0.862276,-2.6e-4 -1.322917,0 2.65e-4,-0.46064 2.65e-4,-0.88249 0,-1.32291 0.440952,-2.7e-4 0.881999,-2.7e-4 1.322917,0 0.220853,0.4409 0.441223,0.88164 0.661457,1.32289 0.441263,-2.6e-4 0.88221,-2.5e-4 1.322918,2e-5 0.882209,-4.40999 1.764153,-8.81971 2.645833,-13.229163 0.882209,4.409453 1.76051,8.800963 2.645833,13.229163 0.443058,-2.6e-4 0.882208,-2.6e-4 1.322917,0 0.882212,-4.41 1.764154,-8.81971 2.645834,-13.229163 0.882208,4.409453 1.764152,8.819173 2.645833,13.229163 0.441237,-2.6e-4 0.938784,-2.6e-4 1.322916,0 0.384661,-0.76906 0.837891,-1.67552 1.322917,-2.64584 2.64e-4,-2.912 0,-7.937489 0,-7.937489"
       sodipodi:nodetypes="cccccccccccccccccccc"
       transform="translate(0.52365555,-10.103383)"
       inkscape:export-xdpi="200"
       inkscape:export-ydpi="200" />
    <path
       style="fill:none;stroke:#13ff76;stroke-width:0.465;stroke-linecap:butt;stroke-linejoin:miter;stroke-miterlimit:4;stroke-dasharray:none;stroke-opacity:1"
       d="m 37.041666,97.239588 c 0.229498,-0.229498 0.532327,-0.384522 0.852695,-0.436511 0.320368,-0.05199 0.65668,-6.83e-4 0.946975,0.144464 0.290294,0.145148 0.533126,0.383414 0.683755,0.670902 0.15063,0.287487 0.208309,0.622765 0.162409,0.944062 -0.04729,0.33106 -0.204501,0.645472 -0.440973,0.881944 -0.236471,0.236472 -0.550884,0.393678 -0.881944,0.440972"
       id="path850"
       inkscape:connector-curvature="0"
       inkscape:path-effect="#path-effect852"
       inkscape:original-d="m 37.041666,97.239588 c -2.645833,1.322917 3.098552,1.326055 2.645834,1.322917 -0.623614,-0.0043 -0.881679,0.88168 -1.322917,1.322916"
       sodipodi:nodetypes="csc"
       transform="translate(-0.9260494,-10.318848)"
       inkscape:export-xdpi="200"
       inkscape:export-ydpi="200" />
    <path
       style="fill:none;stroke:#13ff76;stroke-width:0.465;stroke-linecap:butt;stroke-linejoin:miter;stroke-miterlimit:4;stroke-dasharray:none;stroke-opacity:1"
       d="m 36.380209,95.916668 c 0.452946,-0.326808 1.001043,-0.520061 1.558797,-0.549614 0.557754,-0.02955 1.123205,0.104696 1.60815,0.381808 0.484946,0.277112 0.887681,0.696113 1.145387,1.191644 0.257705,0.495531 0.369474,1.065851 0.317873,1.621999 -0.0625,0.673578 -0.367007,1.322151 -0.845345,1.800485 -0.478337,0.47834 -1.12691,0.78285 -1.800488,0.84535"
       id="path854"
       inkscape:connector-curvature="0"
       inkscape:path-effect="#path-effect856"
       inkscape:original-d="m 36.380209,95.916668 c 0.882208,0.88168 3.748528,1.763628 4.630207,2.645837 0.881679,0.882209 -1.763625,1.763625 -2.645833,2.645835"
       sodipodi:nodetypes="csc"
       transform="translate(-0.9260494,-10.31885)"
       inkscape:export-xdpi="200"
       inkscape:export-ydpi="200" />
    <path
       style="fill:none;stroke:#13ff76;stroke-width:0.465;stroke-linecap:butt;stroke-linejoin:miter;stroke-miterlimit:4;stroke-dasharray:none;stroke-opacity:1"
       d="m 37.041667,94.593755 c 0.671305,-0.427195 1.462744,-0.663321 2.25838,-0.673788 0.795635,-0.01047 1.593012,0.204757 2.275323,0.614143 0.682311,0.409387 1.24745,1.011673 1.612631,1.71863 0.365181,0.706958 0.529276,1.516404 0.468248,2.309765 -0.07812,1.015574 -0.530067,1.998195 -1.250308,2.718445 -0.720241,0.72024 -1.702867,1.17218 -2.718441,1.2503"
       id="path868"
       inkscape:connector-curvature="0"
       inkscape:path-effect="#path-effect870"
       inkscape:original-d="m 37.041667,94.593755 c 1.322916,1.322916 5.29193,2.645569 6.614582,3.96875 1.322653,1.323181 -2.645568,2.645565 -3.968749,3.968745"
       sodipodi:nodetypes="csc"
       transform="translate(-2.2489664,-10.318848)"
       inkscape:export-xdpi="200"
       inkscape:export-ydpi="200" />
    <path
       style="fill:none;fill-opacity:1;stroke:url(#linearGradient881);stroke-width:0.26458332px;stroke-linecap:butt;stroke-linejoin:miter;stroke-opacity:1"
       d="m 44.979166,98.562505 c 0,3.527515 0,7.055295 0.441137,8.819315 0.441138,1.76402 1.323014,1.76402 1.984373,0.66143 0.66136,-1.10259 1.102329,-3.30744 1.102283,-5.95323 -4.6e-5,-2.645796 -0.441018,-5.732598 -0.881963,-4.630196 -0.440945,1.102401 -0.775752,5.120086 -1.049333,8.676486 -0.27358,3.5564 -0.27358,3.89121 -0.494065,4.33231 -0.220485,0.4411 -0.656274,0.87689 -6.229934,0.87703 -5.573661,1.4e-4 -16.038911,-0.43592 -26.622497,-0.8769"
       id="path872"
       inkscape:connector-curvature="0"
       inkscape:path-effect="#path-effect874"
       inkscape:original-d="m 44.979166,98.562505 c 2.65e-4,3.527515 2.65e-4,7.055295 0,10.583335 0.882275,-2.7e-4 1.764151,-2.7e-4 2.645834,0 0.441238,-2.20514 0.882209,-4.40999 1.322917,-6.61459 -0.440708,-3.087068 -0.88168,-6.17387 -1.322917,-9.260412 -0.440708,5.291407 -0.775515,9.309092 -1.322917,15.875002 2.65e-4,0.54687 2.65e-4,0.88168 0,1.32291 -0.440972,0.44097 -0.87676,0.87676 -1.322916,1.32292 -10.701152,-0.44616 -21.166403,-0.88221 -31.75,-1.32292"
       sodipodi:nodetypes="ccccccccc"
       transform="translate(-2.2489671,-10.318848)"
       inkscape:export-xdpi="200"
       inkscape:export-ydpi="200" />
  </g>
</svg>
