<svg xmlns="http://www.w3.org/2000/svg" xmlns:xlink="http://www.w3.org/1999/xlink" width="149.854" height="83.241" viewBox="0 0 39.649 22.024" version="1.1" id="svg8"><defs id="defs2"><linearGradient id="linearGradient879"><stop offset="0" id="stop875" stop-color="#f0f" stop-opacity="1"/><stop offset="1" id="stop877" stop-color="#000" stop-opacity="1"/></linearGradient><linearGradient xlink:href="#linearGradient879" id="linearGradient881" x1="37.042" y1="110.469" x2="46.964" y2="109.146" gradientUnits="userSpaceOnUse"/></defs><g id="layer1" transform="translate(-8.334 -82.094)" fill="none" stroke-linecap="butt" stroke-linejoin="miter" stroke-opacity="1"><path d="M14.949 86.92c0 3.97 0 7.195-.262 9.551-.261 2.356-.62 2.356-.84.371-.221-1.984-.221-5.664.252-7.793.473-2.128 1.28-2.128 2.397-2.128 1.117 0 2.422 0 3.083 1.984.662 1.984.662 5.953.441 7.937-.22 1.985-.642 1.985-.872 1.755-.23-.23-.23-.653-.01-.873.22-.22.662-.22.992 0 .331.221.552.662.882.882.331.221.772.221 1.434-1.984.661-2.205 1.543-6.615 2.425-6.615.882 0 1.76 4.392 2.424 6.606.665 2.214 1.104 2.214 1.765.009.662-2.205 1.544-6.615 2.425-6.615.882 0 1.764 4.41 2.426 6.615.662 2.205 1.16 2.205 1.543 1.82.385-.384.838-1.29 1.08-3.232.243-1.94.243-4.32.243-6.966" id="path821" stroke="#000" stroke-width=".265"/><path d="M36.116 86.92c.23-.229.532-.384.852-.436.32-.052.657 0 .947.145.29.145.533.383.684.67.15.288.208.623.162.945a1.572 1.572 0 0 1-.44.882 1.574 1.574 0 0 1-.882.44" id="path850" stroke="#13ff76" stroke-width=".465" stroke-miterlimit="4" stroke-dasharray="none"/><path d="M35.454 85.598a2.948 2.948 0 0 1 1.559-.55 2.948 2.948 0 0 1 1.608.382 2.94 2.94 0 0 1 1.145 1.192c.258.495.37 1.066.318 1.622a2.957 2.957 0 0 1-.845 1.8 2.957 2.957 0 0 1-1.8.845" id="path854" stroke="#13ff76" stroke-width=".465" stroke-miterlimit="4" stroke-dasharray="none"/><path d="M34.793 84.275a4.339 4.339 0 0 1 2.258-.674 4.339 4.339 0 0 1 2.275.614 4.339 4.339 0 0 1 1.613 1.719c.365.707.53 1.516.468 2.31a4.355 4.355 0 0 1-1.25 2.718 4.355 4.355 0 0 1-2.718 1.25" id="path868" stroke="#13ff76" stroke-width=".465" stroke-miterlimit="4" stroke-dasharray="none"/><path d="M44.98 98.563c0 3.527 0 7.055.44 8.819.441 1.764 1.323 1.764 1.985.661.661-1.102 1.102-3.307 1.102-5.953 0-2.646-.441-5.733-.882-4.63-.44 1.102-.776 5.12-1.05 8.676-.273 3.557-.273 3.892-.493 4.333-.22.44-.657.877-6.23.877-5.574 0-16.04-.436-26.623-.877" id="path872" transform="translate(-2.249 -10.319)" fill-opacity="1" stroke="url(#linearGradient881)" stroke-width=".265"/></g></svg>